# xmcd
# 
# Track frame offsets:
#     150
#     20470
#     44511
#     62472
#     78752
#     97532
#     121173
#     141554
#     157254
#     170635
#     189155
#     201315
#     213195
#     227636
#     242798
#     255848
#     272256
#     288513
#     302777
#     317035
#     338609
#     350403
# 
# Disc length: 4853
# 
# Revision: 0
# Processed by: cddbd v1.5.2PL0 Copyright (c) Steve Scherf et al.
# Submitted via: fre:ac v1.0.17
# 
DISCID=2d12f316
DTITLE=Kris Kristofferson - Live in AUSTIN  Border Lord
DYEAR=0
DGENRE=Country
TTITLE0=me and bobby mcgee (harmony vo
TTITLE1=sunday morning coming down (ha
TTITLE2=for the good times (harmony vo
TTITLE3=the silver tongued devil and I
TTITLE4=help me make it through the ni
TTITLE5=loving her was easier (than an
TTITLE6=to beat the devil
TTITLE7=who's to bless and who's to bl
TTITLE8=why me (harmony vocals vince g
TTITLE9=nobody wins (harmony vocals ca
TTITLE10=the pilgrim chapter 33
TTITLE11=please don't tell me how the s
TTITLE12=Josie
TTITLE13=Burden Of Freedom
TTITLE14=Stagger Mountain Tragedy
TTITLE15=Border Lord
TTITLE16=Somebody Nobody Knows
TTITLE17=Little Girl Lost
TTITLE18=Smokey Put The Sweat On Me
TTITLE19=When She Was Wrong
TTITLE20=Gettin' By, High And Strange
TTITLE21=Kiss The World Goodbye
EXTD=
EXTT0=
EXTT1=
EXTT2=
EXTT3=
EXTT4=
EXTT5=
EXTT6=
EXTT7=
EXTT8=
EXTT9=
EXTT10=
EXTT11=
EXTT12=
EXTT13=
EXTT14=
EXTT15=
EXTT16=
EXTT17=
EXTT18=
EXTT19=
EXTT20=
EXTT21=
PLAYORDER=
